<svg xmlns="http://www.w3.org/2000/svg" viewBox="0 0 64 64">
  <defs>
    <linearGradient id="earth" x1="16" y1="48" x2="48" y2="16" gradientUnits="userSpaceOnUse">
      <stop offset="0" stop-color="#1b6dd1" />
      <stop offset="1" stop-color="#30c7ec" />
    </linearGradient>
  </defs>
  <rect width="64" height="64" rx="12" ry="12" fill="#0f172a" />
  <circle cx="34" cy="36" r="16" fill="url(#earth)" />
  <path d="M44 22l6-6m-9 9l6-6" stroke="#30c7ec" stroke-width="3" stroke-linecap="round" />
  <g fill="#f5f5f5" stroke="#cbd5f5" stroke-width="1.5" stroke-linejoin="round">
    <rect x="14" y="26" width="16" height="12" rx="2" />
    <path d="M12 24h4v16h-4zM26 24h4v16h-4z" />
  </g>
  <g fill="#9ca3af" stroke="#e5e7eb" stroke-width="1.2" stroke-linejoin="round">
    <rect x="26" y="12" width="8" height="8" rx="1.5" />
    <rect x="36" y="12" width="8" height="8" rx="1.5" />
    <path d="M30 20v10l6 6" fill="none" stroke="#e5e7eb" stroke-linecap="round" />
    <circle cx="38" cy="38" r="3" fill="#f8fafc" stroke="#0f172a" stroke-width="1" />
  </g>
  <path d="M34 12l4-4 8 8-4 4z" fill="#64748b" stroke="#e2e8f0" stroke-width="1" stroke-linejoin="round" />
</svg>
