<svg xmlns="http://www.w3.org/2000/svg" viewBox="0 0 128 128">
  <defs>
    <linearGradient id="g" x1="0" x2="0" y1="0" y2="1">
      <stop offset="0%" stop-color="#0F5DFF" />
      <stop offset="100%" stop-color="#093BDD" />
    </linearGradient>
  </defs>
  <rect width="128" height="128" rx="24" fill="url(#g)" />
  <g fill="#fff">
    <rect x="36" y="46" width="56" height="36" rx="8" />
    <rect x="18" y="38" width="20" height="52" rx="6" />
    <rect x="90" y="38" width="20" height="52" rx="6" />
    <path d="M64 82c12 0 24 4 24 4s-8 14-24 14-24-14-24-14 12-4 24-4z" />
    <path d="M63 34c6 0 10 4 10 10s-4 10-10 10-10-4-10-10 4-10 10-10z" />
  </g>
</svg>
